<svg width="429" height="79.31311589570815" viewBox="0 0 369.6417910447761 68.33902613760247" class="looka-1j8o68f">
  <defs id="SvgjsDefs1224"></defs>
  <g id="SvgjsG1225" featurekey="UqkkrJ-0" transform="matrix(0.786681592464447,0,0,0.786681592464447,-0.31073923765203887,-5.148044461245788)" fill="#f8b500">
    <path xmlns="http://www.w3.org/2000/svg" fill="#f8b500" d="M89.896,41.372c-3.082-3.899-5.368-7.181-11.456-8.379  c1.973-5.969,0.415-9.186-1.626-13.789C74.19,13.29,75.185,7,75.185,7h0.012c0,0-5.617,3.724-12.021,4.663  c-4.919,0.721-8.973,1.003-13.068,5.664c-4.32-4.822-8.224-5.283-13.261-5.82C30.412,10.821,25,6.552,25,6.552V6.544  c0,0,0.862,6.978-1.526,12.994c-1.846,4.649-3.493,8.415-1.393,14.374c-6.179,1.325-8.524,4.379-11.478,8.432  C6.792,47.572,0.402,50,0.402,50H0.395c0,0,6.477,2.889,10.492,7.963c3.102,3.92,5.55,7.278,11.744,8.457  c-1.972,6.045-0.361,9.678,1.681,14.28c2.622,5.911,1.658,12.714,1.658,12.714l0,0c0,0,5.62-4.209,12.023-5.146  c4.943-0.727,9.012-1.195,13.125-5.953c4.219,4.72,8.073,5.114,13.074,5.647c6.432,0.686,11.716,4.899,11.716,4.899V92.86  c0,0-0.73-6.959,1.658-12.975c1.841-4.639,3.498-8.393,1.455-14.324c6.206-1.306,8.214-4.493,11.184-8.568  c3.813-5.23,9.796-7.766,9.796-7.766v-0.001C100,49.226,93.913,46.447,89.896,41.372z M50.572,82.282  c-17.939,0-32.532-14.594-32.532-32.534c0-17.938,14.593-32.531,32.532-32.531c17.938,0,32.532,14.593,32.532,32.531  C83.104,67.688,68.51,82.282,50.572,82.282z"></path>
    <path xmlns="http://www.w3.org/2000/svg" fill="#f8b500" d="M50.572,19.383c-16.744,0-30.365,13.622-30.365,30.366  c0,16.745,13.621,30.367,30.365,30.367c16.743,0,30.365-13.622,30.365-30.367C80.938,33.004,67.315,19.383,50.572,19.383z   M50.585,49.727l-0.001-0.004l0.003,0.003C50.586,49.726,50.587,49.727,50.585,49.727z"></path>
    <path xmlns="http://www.w3.org/2000/svg" fill="#f8b500" d="M63.739,29.829c4.185,3.631,6.843,8.975,6.843,14.95c0,10.937-8.865,19.802-19.801,19.802  c-10.935,0-19.8-8.865-19.8-19.802c0-6.232,2.886-11.784,7.388-15.414C31.632,33.509,27.14,40.947,27.14,49.436  c0,13.008,10.544,23.553,23.552,23.553c13.007,0,23.551-10.545,23.551-23.553C74.242,41.255,70.07,34.051,63.739,29.829z"></path>
  </g>
  <g id="SvgjsG1226" featurekey="0kuQ8p-0" transform="matrix(2.960350751876831,0,0,2.960350751876831,96.63823713096372,-15.28844459058347)" fill="#111111">
    <path d="M0.52 9.36 c0 -2.24 1.1 -3.52 3.24 -3.52 s3.24 1.28 3.24 3.52 l0 0.44 l-2.08 0 l0 -0.58 c0 -1 -0.4 -1.38 -1.1 -1.38 s-1.1 0.38 -1.1 1.38 c0 1.02 0.44 1.78 1.88 3.04 c1.84 1.62 2.42 2.78 2.42 4.38 c0 2.24 -1.12 3.52 -3.28 3.52 s-3.28 -1.28 -3.28 -3.52 l0 -0.86 l2.08 0 l0 1 c0 1 0.44 1.36 1.14 1.36 s1.14 -0.36 1.14 -1.36 c0 -1.02 -0.44 -1.78 -1.88 -3.04 c-1.84 -1.62 -2.42 -2.78 -2.42 -4.38 z M13.16 6 l2.24 14 l-2.22 0 l-0.38 -2.54 l-2.7 0 l-0.38 2.54 l-2.02 0 l2.24 -14 l3.22 0 z M11.42 8.48 l-1.04 7.08 l2.12 0 l-1.04 -7.08 l-0.04 0 z M21.12 20 l-2.7 -10.14 l-0.04 0 l0 10.14 l-1.98 0 l0 -14 l2.76 0 l2.22 8.38 l0.04 0 l0 -8.38 l1.96 0 l0 14 l-2.26 0 z M24.680000000000003 9.36 c0 -2.24 1.1 -3.52 3.24 -3.52 s3.24 1.28 3.24 3.52 l0 0.44 l-2.08 0 l0 -0.58 c0 -1 -0.4 -1.38 -1.1 -1.38 s-1.1 0.38 -1.1 1.38 c0 1.02 0.44 1.78 1.88 3.04 c1.84 1.62 2.42 2.78 2.42 4.38 c0 2.24 -1.12 3.52 -3.28 3.52 s-3.28 -1.28 -3.28 -3.52 l0 -0.86 l2.08 0 l0 1 c0 1 0.44 1.36 1.14 1.36 s1.14 -0.36 1.14 -1.36 c0 -1.02 -0.44 -1.78 -1.88 -3.04 c-1.84 -1.62 -2.42 -2.78 -2.42 -4.38 z M32.440000000000005 20 l0 -14 l2.2 0 l0 14 l-2.2 0 z M41.120000000000005 6 l2.24 14 l-2.22 0 l-0.38 -2.54 l-2.7 0 l-0.38 2.54 l-2.02 0 l2.24 -14 l3.22 0 z M39.38 8.48 l-1.04 7.08 l2.12 0 l-1.04 -7.08 l-0.04 0 z M49.68000000000001 8 l0 3.9 l3.02 0 l0 2 l-3.02 0 l0 4.1 l3.8 0 l0 2 l-6 0 l0 -14 l6 0 l0 2 l-3.8 0 z M60.14000000000001 6 l2.04 0 l-2.3 6.8 l2.46 7.2 l-2.32 0 l-1.78 -5.54 l-0.04 0 l-1.8 5.54 l-2.06 0 l2.46 -7.2 l-2.3 -6.8 l2.28 0 l1.64 5.16 l0.04 0 z M66.68 6 c2.2 0 3.28 1.22 3.28 3.46 l0 1.82 c0 2.24 -1.08 3.46 -3.28 3.46 l-1.04 0 l0 5.26 l-2.2 0 l0 -14 l3.24 0 z M66.68 8 l-1.04 0 l0 4.74 l1.04 0 c0.7 0 1.08 -0.32 1.08 -1.32 l0 -2.1 c0 -1 -0.38 -1.32 -1.08 -1.32 z M73.18 8 l0 3.9 l3.02 0 l0 2 l-3.02 0 l0 4.1 l3.8 0 l0 2 l-6 0 l0 -14 l6 0 l0 2 l-3.8 0 z M82.64 14.780000000000001 l2.08 0 l0 1.86 c0 2.24 -1.12 3.52 -3.28 3.52 s-3.28 -1.28 -3.28 -3.52 l0 -7.28 c0 -2.24 1.12 -3.52 3.28 -3.52 s3.28 1.28 3.28 3.52 l0 1.36 l-2.08 0 l0 -1.5 c0 -1 -0.44 -1.38 -1.14 -1.38 s-1.14 0.38 -1.14 1.38 l0 7.56 c0 1 0.44 1.36 1.14 1.36 s1.14 -0.36 1.14 -1.36 l0 -2 z M85.42 8 l0 -2 l6.8 0 l0 2 l-2.3 0 l0 12 l-2.2 0 l0 -12 l-2.3 0 z"></path>
  </g>
  <g id="SvgjsG1227" featurekey="Nh6iBa-0" transform="matrix(0.920665442943573,0,0,0.920665442943573,97.42918742270199,48.6233150059233)" fill="#111111">
    <path d="M2.82 9.22 l0 7.56 c0 1 0.44 1.38 1.14 1.38 s1.14 -0.38 1.14 -1.38 l0 -7.56 c0 -1 -0.44 -1.38 -1.14 -1.38 s-1.14 0.38 -1.14 1.38 z M0.62 16.64 l0 -7.28 c0 -2.24 1.18 -3.52 3.34 -3.52 s3.34 1.28 3.34 3.52 l0 7.28 c0 2.24 -1.18 3.52 -3.34 3.52 s-3.34 -1.28 -3.34 -3.52 z M19.367937500000004 6 l1.66 11.42 l0.04 0 l1.66 -11.42 l2.02 0 l-2.16 14 l-3.28 0 l-2.16 -14 l2.22 0 z M36.995875 8 l0 3.9 l3.02 0 l0 2 l-3.02 0 l0 4.1 l3.8 0 l0 2 l-6 0 l0 -14 l6 0 l0 2 l-3.8 0 z M58.0238125 20 l-2.24 0 c-0.12 -0.36 -0.2 -0.58 -0.2 -1.72 l0 -2.2 c0 -1.3 -0.44 -1.78 -1.44 -1.78 l-0.76 0 l0 5.7 l-2.2 0 l0 -14 l3.32 0 c2.28 0 3.26 1.06 3.26 3.22 l0 1.1 c0 1.44 -0.46 2.36 -1.44 2.82 l0 0.04 c1.1 0.46 1.46 1.5 1.46 2.96 l0 2.16 c0 0.68 0.02 1.18 0.24 1.7 z M54.4438125 8 l-1.06 0 l0 4.3 l0.86 0 c0.82 0 1.32 -0.36 1.32 -1.48 l0 -1.38 c0 -1 -0.34 -1.44 -1.12 -1.44 z M70.45175 8 l0 3.9 l3.02 0 l0 2 l-3.02 0 l0 4.1 l3.8 0 l0 2 l-6 0 l0 -14 l6 0 l0 2 l-3.8 0 z M89.93968749999999 6 l2.04 0 l-2.3 6.8 l2.46 7.2 l-2.32 0 l-1.78 -5.54 l-0.04 0 l-1.8 5.54 l-2.06 0 l2.46 -7.2 l-2.3 -6.8 l2.28 0 l1.64 5.16 l0.04 0 z M105.507625 6 c2.2 0 3.28 1.22 3.28 3.46 l0 1.82 c0 2.24 -1.08 3.46 -3.28 3.46 l-1.04 0 l0 5.26 l-2.2 0 l0 -14 l3.24 0 z M105.507625 8 l-1.04 0 l0 4.74 l1.04 0 c0.7 0 1.08 -0.32 1.08 -1.32 l0 -2.1 c0 -1 -0.38 -1.32 -1.08 -1.32 z M121.0355625 8 l0 3.9 l3.02 0 l0 2 l-3.02 0 l0 4.1 l3.8 0 l0 2 l-6 0 l0 -14 l6 0 l0 2 l-3.8 0 z M139.52349999999998 14.780000000000001 l2.08 0 l0 1.86 c0 2.24 -1.12 3.52 -3.28 3.52 s-3.28 -1.28 -3.28 -3.52 l0 -7.28 c0 -2.24 1.12 -3.52 3.28 -3.52 s3.28 1.28 3.28 3.52 l0 1.36 l-2.08 0 l0 -1.5 c0 -1 -0.44 -1.38 -1.14 -1.38 s-1.14 0.38 -1.14 1.38 l0 7.56 c0 1 0.44 1.36 1.14 1.36 s1.14 -0.36 1.14 -1.36 l0 -2 z M151.3314375 8 l0 -2 l6.8 0 l0 2 l-2.3 0 l0 12 l-2.2 0 l0 -12 l-2.3 0 z M170.319375 8 l0 3.9 l3.02 0 l0 2 l-3.02 0 l0 4.1 l3.8 0 l0 2 l-6 0 l0 -14 l6 0 l0 2 l-3.8 0 z M184.5073125 20 l0 -14 l3.48 0 c2.2 0 3.28 1.22 3.28 3.46 l0 7.08 c0 2.24 -1.08 3.46 -3.28 3.46 l-3.48 0 z M187.9473125 8 l-1.24 0 l0 10 l1.24 0 c0.7 0 1.12 -0.36 1.12 -1.36 l0 -7.28 c0 -1 -0.42 -1.36 -1.12 -1.36 z"></path>
  </g>
</svg>